<svg width="72" height="20" viewBox="0 0 72 20" fill="none" xmlns="http://www.w3.org/2000/svg">
<path d="M5.46412 15.6486C4.25524 15.6486 3.23979 15.4713 2.41775 15.1167C1.59572 14.7459 0.983219 14.3187 0.58026 13.8351C0.19342 13.3354 0 12.9082 0 12.5536C0 12.3924 0.0564142 12.2634 0.169243 12.1667C0.282071 12.07 0.411018 12.0217 0.556083 12.0217H2.46611C2.61117 12.0217 2.73206 12.0781 2.82877 12.1909C2.89324 12.2393 3.06249 12.3843 3.3365 12.6261C3.61051 12.8841 3.93288 13.0856 4.3036 13.2306C4.67432 13.3757 5.08534 13.4483 5.53665 13.4483C6.18138 13.4483 6.71329 13.3193 7.13237 13.0614C7.55144 12.8035 7.76098 12.4488 7.76098 11.9975C7.76098 11.659 7.66427 11.3849 7.47085 11.1754C7.29355 10.9658 6.96312 10.7804 6.47957 10.6192C5.99602 10.4419 5.27876 10.2565 4.32777 10.0631C2.95772 9.77294 1.94226 9.32964 1.28141 8.73321C0.636674 8.13677 0.314308 7.3469 0.314308 6.36359C0.314308 5.7188 0.507728 5.11431 0.894568 4.55011C1.28141 3.9698 1.85361 3.50232 2.61117 3.14769C3.38485 2.77693 4.3036 2.59155 5.36741 2.59155C6.44734 2.59155 7.3822 2.76887 8.172 3.12351C8.9618 3.46202 9.55818 3.87308 9.96113 4.35667C10.3802 4.82415 10.5898 5.24326 10.5898 5.61402C10.5898 5.7591 10.5333 5.88806 10.4205 6.0009C10.3238 6.09761 10.2029 6.14597 10.0578 6.14597H8.26871C8.13976 6.14597 8.00276 6.08956 7.85769 5.97672C7.74486 5.89612 7.56756 5.74298 7.32579 5.5173C7.08401 5.29162 6.80194 5.11431 6.47957 4.98535C6.15721 4.85639 5.77843 4.79191 5.34323 4.79191C4.74685 4.79191 4.27942 4.92087 3.94093 5.17879C3.61857 5.4367 3.45738 5.77522 3.45738 6.19433C3.45738 6.50061 3.53798 6.75047 3.69916 6.94391C3.86034 7.13734 4.17465 7.32272 4.64208 7.50004C5.10951 7.67736 5.81066 7.85468 6.74553 8.03199C8.29289 8.33827 9.39699 8.81381 10.0578 9.4586C10.7348 10.1034 11.0733 10.8933 11.0733 11.8282C11.0733 12.9566 10.5817 13.8754 9.59847 14.5847C8.61525 15.294 7.23714 15.6486 5.46412 15.6486Z" fill="#242424"/>
<path d="M14.1735 20.001C14.0123 20.001 13.8753 19.9445 13.7625 19.8317C13.6497 19.735 13.5932 19.598 13.5932 19.4207V3.41366C13.5932 3.23635 13.6497 3.09933 13.7625 3.00261C13.8753 2.88977 14.0123 2.83335 14.1735 2.83335H16.0835C16.2608 2.83335 16.3978 2.88977 16.4945 3.00261C16.6074 3.09933 16.6638 3.23635 16.6638 3.41366V4.38085C17.5664 3.18799 18.8559 2.59155 20.5322 2.59155C22.1601 2.59155 23.4093 3.10739 24.2797 4.13906C25.1501 5.15461 25.6175 6.53285 25.682 8.27379C25.6981 8.46723 25.7062 8.74933 25.7062 9.12008C25.7062 9.50696 25.6981 9.79711 25.682 9.99055C25.6175 11.6831 25.1501 13.0533 24.2797 14.1011C23.4093 15.1328 22.1601 15.6486 20.5322 15.6486C18.9042 15.6486 17.6631 15.0764 16.8088 13.9319V19.4207C16.8088 19.598 16.7524 19.735 16.6396 19.8317C16.5429 19.9445 16.4059 20.001 16.2286 20.001H14.1735ZM19.6376 13.0614C21.3784 13.0614 22.3052 11.9894 22.418 9.84547C22.4342 9.68428 22.4422 9.44248 22.4422 9.12008C22.4422 8.79769 22.4342 8.55589 22.418 8.39469C22.3052 6.25075 21.3784 5.17879 19.6376 5.17879C18.7028 5.17879 18.0097 5.477 17.5584 6.07344C17.107 6.66987 16.8572 7.40332 16.8088 8.27379L16.7847 9.19262L16.8088 10.1356C16.8411 10.9416 17.0909 11.6348 17.5584 12.2151C18.0419 12.7793 18.735 13.0614 19.6376 13.0614Z" fill="#242424"/>
<path d="M32.0711 15.6486C31.2491 15.6486 30.4915 15.4874 29.7984 15.165C29.1214 14.8265 28.5815 14.3751 28.1785 13.811C27.7917 13.2468 27.5983 12.6261 27.5983 11.9491C27.5983 10.853 28.0415 9.96637 28.928 9.28934C29.8145 8.61231 31.0315 8.15289 32.5788 7.9111L35.8911 7.4275V6.91973C35.8911 6.21045 35.7138 5.6785 35.3592 5.32386C35.0046 4.96923 34.4324 4.79191 33.6426 4.79191C33.1107 4.79191 32.6755 4.89669 32.337 5.10625C32.0147 5.29968 31.7568 5.49312 31.5634 5.68656C31.3699 5.89612 31.241 6.03314 31.1765 6.09762C31.1121 6.29105 30.9912 6.38777 30.8139 6.38777H28.9522C28.8071 6.38777 28.6782 6.33941 28.5654 6.24269C28.4686 6.14597 28.4203 6.01702 28.4203 5.85582C28.4364 5.45282 28.6298 4.99341 29.0005 4.47757C29.3874 3.96174 29.9757 3.51844 30.7655 3.14769C31.5553 2.77693 32.5224 2.59155 33.6668 2.59155C35.5688 2.59155 36.9549 3.01873 37.8253 3.87308C38.6957 4.72743 39.1309 5.84776 39.1309 7.23406V14.8265C39.1309 14.9877 39.0745 15.1247 38.9617 15.2376C38.865 15.3504 38.728 15.4068 38.5507 15.4068H36.5923C36.4311 15.4068 36.2941 15.3504 36.1813 15.2376C36.0684 15.1247 36.012 14.9877 36.012 14.8265V13.8835C35.6574 14.3993 35.1497 14.8265 34.4888 15.165C33.8441 15.4874 33.0382 15.6486 32.0711 15.6486ZM32.8931 13.3515C33.7796 13.3515 34.505 13.0614 35.0691 12.4811C35.6332 11.9008 35.9153 11.0545 35.9153 9.94219V9.43442L33.4976 9.82129C32.5627 9.96637 31.8535 10.2001 31.3699 10.5225C30.9025 10.8449 30.6688 11.2398 30.6688 11.7073C30.6688 12.2231 30.8864 12.6261 31.3216 12.9163C31.7568 13.2065 32.2806 13.3515 32.8931 13.3515Z" fill="#242424"/>
<path d="M65.7782 15.6486C63.989 15.6486 62.5625 15.1328 61.4987 14.1011C60.451 13.0533 59.895 11.5864 59.8305 9.7004L59.8063 9.0959L59.8305 8.49141C59.9111 6.65375 60.4752 5.21102 61.5229 4.16324C62.5867 3.11545 64.0051 2.59155 65.7782 2.59155C67.6801 2.59155 69.1469 3.17187 70.1785 4.33249C71.2262 5.49312 71.75 7.04063 71.75 8.975V9.48278C71.75 9.64398 71.6936 9.78099 71.5808 9.89383C71.4679 10.0067 71.3229 10.0631 71.1456 10.0631H63.1186V10.2565C63.1509 11.1431 63.3926 11.8927 63.844 12.5052C64.3114 13.1017 64.9481 13.3999 65.754 13.3999C66.705 13.3999 67.4706 13.0291 68.0508 12.2876C68.1959 12.1103 68.3087 11.9975 68.3893 11.9491C68.486 11.9008 68.623 11.8766 68.8003 11.8766H70.8796C71.0247 11.8766 71.1456 11.9249 71.2423 12.0217C71.3551 12.1023 71.4115 12.207 71.4115 12.336C71.4115 12.7229 71.1778 13.1823 70.7104 13.7142C70.2591 14.2301 69.6063 14.6814 68.752 15.0683C67.8977 15.4552 66.9064 15.6486 65.7782 15.6486ZM68.4619 8.03199V7.95946C68.4619 7.00839 68.2201 6.24269 67.7365 5.66238C67.2691 5.08207 66.6163 4.79191 65.7782 4.79191C64.94 4.79191 64.2872 5.08207 63.8198 5.66238C63.3523 6.24269 63.1186 7.00839 63.1186 7.95946V8.03199H68.4619Z" fill="#242424"/>
<path fill-rule="evenodd" clip-rule="evenodd" d="M45.8444 15.4577C42.003 13.2396 40.5076 8.7889 42.2883 4.7694C42.512 4.26445 43.1297 4.10192 43.608 4.37808L44.1853 4.71145C44.6636 4.98762 44.8182 5.59744 44.6176 6.11199C43.5667 8.80691 44.5945 11.6565 47.1777 13.1481C49.761 14.6397 52.7425 14.1051 54.5507 11.8474C54.896 11.4164 55.5013 11.2454 55.9796 11.5215L56.557 11.8549C57.0353 12.1311 57.2034 12.7473 56.8779 13.1935C54.2876 16.7455 49.6858 17.6757 45.8444 15.4577Z" fill="#155DE8"/>
<path fill-rule="evenodd" clip-rule="evenodd" d="M49.2301 2.45365C50.4302 3.14662 50.9438 4.48785 50.5699 5.76494C50.4517 6.16882 49.9742 6.29277 49.6098 6.08234C49.2453 5.87192 49.1527 5.39912 49.1659 4.97849C49.1814 4.48634 48.9266 4.03813 48.4682 3.77345C48.0098 3.50876 47.4943 3.51221 47.0758 3.77169C46.7182 3.99346 46.2625 4.14959 45.898 3.93916C45.5336 3.72874 45.4022 3.2532 45.6928 2.94886C46.6118 1.98651 48.03 1.76069 49.2301 2.45365Z" fill="#155DE8"/>
<path fill-rule="evenodd" clip-rule="evenodd" d="M55.4137 6.02616C56.6138 6.71913 57.1274 8.06036 56.7535 9.33745C56.6353 9.74133 56.1578 9.86528 55.7934 9.65485C55.4289 9.44443 55.3363 8.97163 55.3495 8.551C55.365 8.05884 55.1102 7.61064 54.6518 7.34596C54.1934 7.08127 53.6779 7.08472 53.2594 7.3442C52.9018 7.56597 52.446 7.7221 52.0816 7.51167C51.7172 7.30125 51.5858 6.82571 51.8764 6.52137C52.7953 5.55902 54.2136 5.3332 55.4137 6.02616Z" fill="#155DE8"/>
</svg>
