<svg viewBox="0 0 110 20" fill="none" xmlns="http://www.w3.org/2000/svg">
<path d="M35.1223 15.5255C34.0663 15.5255 33.1798 15.3761 32.4628 15.0772C31.7588 14.7783 31.2373 14.421 30.8983 14.0052C30.5594 13.5894 30.3899 13.219 30.3899 12.8941C30.3899 12.7642 30.4355 12.6602 30.5268 12.5823C30.6311 12.4913 30.7419 12.4458 30.8592 12.4458H33.0886C33.1668 12.4458 33.2385 12.4783 33.3037 12.5433C33.4601 12.6473 33.5774 12.7317 33.6557 12.7967C33.9425 13.0046 34.1902 13.1605 34.3988 13.2645C34.6204 13.3555 34.8877 13.4009 35.2006 13.4009C35.5786 13.4009 35.885 13.3295 36.1197 13.1865C36.3674 13.0306 36.4912 12.8162 36.4912 12.5433C36.4912 12.3224 36.426 12.147 36.2957 12.017C36.1783 11.8871 35.9437 11.7636 35.5917 11.6467C35.2397 11.5167 34.7051 11.3803 33.9881 11.2374C32.906 11.0164 32.0717 10.6591 31.485 10.1653C30.9114 9.65852 30.6246 8.98281 30.6246 8.13817C30.6246 7.60539 30.794 7.09861 31.133 6.61781C31.472 6.13702 31.9739 5.74718 32.6388 5.44831C33.3167 5.14944 34.1185 5 35.0441 5C35.9697 5 36.778 5.14294 37.469 5.42882C38.16 5.7147 38.6814 6.06555 39.0334 6.48137C39.3985 6.8842 39.581 7.25454 39.581 7.5924C39.581 7.70935 39.5354 7.81331 39.4441 7.90427C39.3659 7.99523 39.2681 8.04071 39.1508 8.04071H37.117C37.0127 8.04071 36.9149 8.00822 36.8237 7.94325C36.6542 7.85229 36.5043 7.75483 36.3739 7.65088C36.1523 7.48195 35.9437 7.352 35.7481 7.26104C35.5526 7.17008 35.3114 7.1246 35.0246 7.1246C34.6856 7.1246 34.4118 7.20257 34.2032 7.3585C34.0077 7.51443 33.9099 7.71585 33.9099 7.96274C33.9099 8.15766 33.962 8.32009 34.0663 8.45004C34.1837 8.57998 34.4183 8.70993 34.7703 8.83987C35.1354 8.95682 35.6699 9.08027 36.3739 9.21021C37.6385 9.43112 38.5576 9.82095 39.1312 10.3797C39.7179 10.9385 40.0112 11.5947 40.0112 12.3484C40.0112 13.31 39.581 14.0831 38.7206 14.6679C37.8601 15.2397 36.6607 15.5255 35.1223 15.5255Z" fill="#242424"/>
<path d="M42.2354 19.034C42.105 19.034 41.9876 18.9886 41.8834 18.8976C41.7921 18.8066 41.7465 18.6897 41.7465 18.5468V5.68221C41.7465 5.53927 41.7921 5.42232 41.8834 5.33136C41.9876 5.2404 42.105 5.19492 42.2354 5.19492H44.4451C44.5885 5.19492 44.7059 5.2404 44.7971 5.33136C44.8884 5.42232 44.934 5.53927 44.934 5.68221V6.38391C45.638 5.4613 46.6484 5 47.9651 5C49.2428 5 50.2401 5.39633 50.9571 6.189C51.6742 6.98166 52.0653 8.09918 52.1305 9.54157C52.1435 9.7105 52.15 9.9509 52.15 10.2628C52.15 10.5746 52.1435 10.815 52.1305 10.984C52.0783 12.3874 51.6872 13.4984 50.9571 14.317C50.227 15.1227 49.2297 15.5255 47.9651 15.5255C46.6875 15.5255 45.7358 15.0902 45.11 14.2196V18.5468C45.11 18.6897 45.0644 18.8066 44.9731 18.8976C44.8819 18.9886 44.7645 19.034 44.6211 19.034H42.2354ZM46.9091 12.9136C47.5219 12.9136 47.9586 12.7317 48.2193 12.3679C48.4931 12.004 48.6496 11.5037 48.6887 10.867C48.7148 10.6071 48.7278 10.4057 48.7278 10.2628C48.7278 10.1198 48.7148 9.91841 48.6887 9.65852C48.6496 9.02179 48.4931 8.52151 48.2193 8.15766C47.9586 7.79381 47.5219 7.61189 46.9091 7.61189C46.3094 7.61189 45.8662 7.80031 45.5793 8.17715C45.3056 8.541 45.1491 9.0153 45.11 9.60005L45.0905 10.3212L45.11 11.0619C45.1361 11.5947 45.2991 12.0365 45.5989 12.3874C45.8988 12.7382 46.3355 12.9136 46.9091 12.9136Z" fill="#242424"/>
<path d="M57.1339 15.5255C56.443 15.5255 55.8107 15.3956 55.237 15.1357C54.6764 14.8628 54.2332 14.499 53.9073 14.0442C53.5944 13.5764 53.4379 13.0631 53.4379 12.5043C53.4379 11.6077 53.803 10.8865 54.533 10.3407C55.2761 9.79496 56.293 9.41812 57.5837 9.21021L60.0281 8.83987V8.56699C60.0281 8.0732 59.9238 7.70935 59.7153 7.47545C59.5067 7.24155 59.1547 7.1246 58.6593 7.1246C58.3594 7.1246 58.1117 7.17658 57.9161 7.28053C57.7206 7.38449 57.5185 7.52743 57.3099 7.70935C57.1274 7.86528 56.9905 7.96924 56.8993 8.02122C56.8601 8.12517 56.7884 8.17715 56.6841 8.17715H54.5526C54.4222 8.17715 54.3114 8.13817 54.2201 8.0602C54.1419 7.96924 54.1093 7.86528 54.1224 7.74833C54.1354 7.39748 54.3049 7.00765 54.6308 6.57883C54.9698 6.15001 55.4782 5.77967 56.1561 5.4678C56.8471 5.15593 57.6945 5 58.6984 5C60.3019 5 61.4883 5.35735 62.2575 6.07204C63.0267 6.77375 63.4112 7.72234 63.4112 8.91784V14.8433C63.4112 14.9733 63.3656 15.0902 63.2744 15.1942C63.1831 15.2851 63.0658 15.3306 62.9224 15.3306H60.6539C60.5235 15.3306 60.4062 15.2851 60.3019 15.1942C60.2107 15.0902 60.165 14.9733 60.165 14.8433V14.1611C59.8782 14.5639 59.4741 14.8953 58.9526 15.1552C58.4441 15.4021 57.8379 15.5255 57.1339 15.5255ZM58.053 13.3035C58.6527 13.3035 59.1351 13.1086 59.5001 12.7187C59.8782 12.3289 60.0672 11.7571 60.0672 11.0035V10.7306L58.405 11.0229C57.2317 11.2309 56.645 11.6402 56.645 12.2509C56.645 12.5758 56.7819 12.8357 57.0557 13.0306C57.3295 13.2125 57.6619 13.3035 58.053 13.3035Z" fill="#242424"/>
<path d="M70.2917 15.5255C68.8186 15.5255 67.6257 15.1357 66.7131 14.356C65.8005 13.5634 65.3116 12.4653 65.2464 11.0619L65.2269 10.2823L65.2464 9.4831C65.2986 8.07969 65.7809 6.98166 66.6935 6.189C67.6191 5.39633 68.8186 5 70.2917 5C71.3999 5 72.332 5.20141 73.0882 5.60424C73.8574 5.99408 74.4245 6.46838 74.7895 7.02714C75.1676 7.57291 75.3697 8.0732 75.3957 8.528C75.4088 8.65795 75.3631 8.7749 75.2588 8.87885C75.1676 8.96982 75.0503 9.0153 74.9068 9.0153H72.4233C72.2799 9.0153 72.1691 8.98281 72.0909 8.91784C72.0126 8.85286 71.9409 8.75541 71.8757 8.62546C71.7193 8.22263 71.5172 7.93675 71.2695 7.76783C71.0349 7.5989 70.7285 7.51443 70.3504 7.51443C69.2814 7.51443 68.7273 8.20314 68.6882 9.58056L68.6686 10.3212L68.6882 10.9645C68.7143 11.6662 68.8642 12.1859 69.138 12.5238C69.4248 12.8487 69.8289 13.0111 70.3504 13.0111C70.7546 13.0111 71.074 12.9266 71.3086 12.7577C71.5433 12.5888 71.7323 12.3029 71.8757 11.9001C71.9409 11.7701 72.0126 11.6727 72.0909 11.6077C72.1691 11.5427 72.2799 11.5102 72.4233 11.5102H74.9068C75.0372 11.5102 75.148 11.5557 75.2393 11.6467C75.3436 11.7246 75.3957 11.8286 75.3957 11.9585C75.3957 12.3744 75.2132 12.8617 74.8482 13.4204C74.4962 13.9792 73.9356 14.473 73.1664 14.9018C72.3972 15.3176 71.439 15.5255 70.2917 15.5255Z" fill="#242424"/>
<path d="M81.8265 15.5255C80.3533 15.5255 79.1604 15.1357 78.2478 14.356C77.3352 13.5634 76.8463 12.4653 76.7811 11.0619L76.7616 10.2823L76.7811 9.4831C76.8333 8.07969 77.3156 6.98166 78.2282 6.189C79.1539 5.39633 80.3533 5 81.8265 5C82.9346 5 83.8667 5.20141 84.6229 5.60424C85.3921 5.99408 85.9592 6.46838 86.3242 7.02714C86.7023 7.57291 86.9044 8.0732 86.9304 8.528C86.9435 8.65795 86.8979 8.7749 86.7936 8.87885C86.7023 8.96982 86.585 9.0153 86.4416 9.0153H83.958C83.8146 9.0153 83.7038 8.98281 83.6256 8.91784C83.5473 8.85286 83.4756 8.75541 83.4104 8.62546C83.254 8.22263 83.0519 7.93675 82.8042 7.76783C82.5696 7.5989 82.2632 7.51443 81.8851 7.51443C80.8161 7.51443 80.262 8.20314 80.2229 9.58056L80.2033 10.3212L80.2229 10.9645C80.249 11.6662 80.3989 12.1859 80.6727 12.5238C80.9595 12.8487 81.3636 13.0111 81.8851 13.0111C82.2893 13.0111 82.6087 12.9266 82.8433 12.7577C83.078 12.5888 83.267 12.3029 83.4104 11.9001C83.4756 11.7701 83.5473 11.6727 83.6256 11.6077C83.7038 11.5427 83.8146 11.5102 83.958 11.5102H86.4416C86.5719 11.5102 86.6827 11.5557 86.774 11.6467C86.8783 11.7246 86.9304 11.8286 86.9304 11.9585C86.9304 12.3744 86.7479 12.8617 86.3829 13.4204C86.0309 13.9792 85.4703 14.473 84.7011 14.9018C83.9319 15.3176 82.9737 15.5255 81.8265 15.5255Z" fill="#242424"/>
<path d="M93.3612 15.5255C91.888 15.5255 90.6951 15.1357 89.7825 14.356C88.8699 13.5634 88.381 12.4653 88.3158 11.0619L88.2963 10.2823L88.3158 9.4831C88.368 8.07969 88.8504 6.98166 89.7629 6.189C90.6886 5.39633 91.888 5 93.3612 5C94.4693 5 95.4015 5.20141 96.1576 5.60424C96.9268 5.99408 97.4939 6.46838 97.8589 7.02714C98.237 7.57291 98.4391 8.0732 98.4652 8.528C98.4782 8.65795 98.4326 8.7749 98.3283 8.87885C98.237 8.96982 98.1197 9.0153 97.9763 9.0153H95.4927C95.3493 9.0153 95.2385 8.98281 95.1603 8.91784C95.082 8.85286 95.0103 8.75541 94.9452 8.62546C94.7887 8.22263 94.5866 7.93675 94.3389 7.76783C94.1043 7.5989 93.7979 7.51443 93.4198 7.51443C92.3508 7.51443 91.7967 8.20314 91.7576 9.58056L91.7381 10.3212L91.7576 10.9645C91.7837 11.6662 91.9336 12.1859 92.2074 12.5238C92.4942 12.8487 92.8983 13.0111 93.4198 13.0111C93.824 13.0111 94.1434 12.9266 94.378 12.7577C94.6127 12.5888 94.8018 12.3029 94.9452 11.9001C95.0103 11.7701 95.082 11.6727 95.1603 11.6077C95.2385 11.5427 95.3493 11.5102 95.4927 11.5102H97.9763C98.1066 11.5102 98.2175 11.5557 98.3087 11.6467C98.413 11.7246 98.4652 11.8286 98.4652 11.9585C98.4652 12.3744 98.2826 12.8617 97.9176 13.4204C97.5656 13.9792 97.005 14.473 96.2358 14.9018C95.4666 15.3176 94.5084 15.5255 93.3612 15.5255Z" fill="#242424"/>
<path d="M104.915 15.5255C103.351 15.5255 102.119 15.1032 101.219 14.2586C100.32 13.4139 99.8505 12.1859 99.8114 10.5746V9.89242C99.8636 8.35907 100.339 7.16358 101.239 6.30595C102.152 5.43532 103.371 5 104.896 5C106.004 5 106.936 5.2274 107.692 5.68221C108.461 6.12402 109.035 6.73476 109.413 7.51443C109.804 8.2941 110 9.19072 110 10.2043V10.6721C110 10.802 109.954 10.919 109.863 11.0229C109.772 11.1139 109.654 11.1594 109.511 11.1594H103.253V11.2958C103.279 11.9066 103.429 12.4004 103.703 12.7772C103.977 13.154 104.374 13.3425 104.896 13.3425C105.222 13.3425 105.489 13.2775 105.698 13.1475C105.906 13.0046 106.095 12.8357 106.265 12.6408C106.382 12.4978 106.473 12.4134 106.539 12.3874C106.617 12.3484 106.734 12.3289 106.891 12.3289H109.315C109.433 12.3289 109.531 12.3679 109.609 12.4458C109.7 12.5108 109.746 12.6018 109.746 12.7187C109.746 13.0566 109.55 13.4464 109.159 13.8882C108.781 14.33 108.227 14.7134 107.497 15.0382C106.767 15.3631 105.906 15.5255 104.915 15.5255ZM106.558 9.2297V9.19072C106.558 8.55399 106.408 8.0537 106.108 7.68986C105.821 7.31302 105.417 7.1246 104.896 7.1246C104.387 7.1246 103.983 7.31302 103.683 7.68986C103.397 8.0537 103.253 8.55399 103.253 9.19072V9.2297H106.558Z" fill="#242424"/>
<path d="M0 8.5448L5.70935 7.79761L6.45417 13.5252L0.744813 14.2724L0 8.5448Z" fill="#155DE8"/>
<path d="M0.744629 14.2725L6.45398 13.5253L7.1988 19.2528L1.48944 20L0.744629 14.2725Z" fill="#155DE8"/>
<path d="M6.45435 13.5254L12.1637 12.7782L12.9085 18.5058L7.19916 19.2529L6.45435 13.5254Z" fill="#155DE8"/>
<path d="M12.1599 12.7727L17.8957 12.0221L18.6405 17.7496L12.9047 18.5003L12.1599 12.7727Z" fill="#155DE8"/>
<path d="M5.61182 0L11.1721 1.49953L9.68647 7.08003L4.12614 5.5805L5.61182 0Z" fill="#155DE8"/>
<path d="M14.4385 2.51392L20 4.00888L18.5098 9.58815L12.9483 8.09319L14.4385 2.51392Z" fill="#155DE8"/>
</svg>
