<svg width="20" height="17" viewBox="0 0 20 17" fill="none" xmlns="http://www.w3.org/2000/svg">
<path d="M20 1.94986C19.2563 2.28054 18.4637 2.49973 17.6375 2.60615C18.4875 2.09176 19.1363 1.28344 19.4412 0.30914C18.6488 0.788054 17.7738 1.12634 16.8412 1.31511C16.0887 0.502987 15.0162 0 13.8462 0C11.5763 0 9.74875 1.86751 9.74875 4.15692C9.74875 4.48634 9.77625 4.80308 9.84375 5.10462C6.435 4.93611 3.41875 3.28018 1.3925 0.757647C1.03875 1.37973 0.83125 2.09176 0.83125 2.85828C0.83125 4.29756 1.5625 5.57339 2.6525 6.31204C1.99375 6.29937 1.3475 6.10552 0.8 5.80018C0.8 5.81285 0.8 5.82932 0.8 5.84579C0.8 7.86534 2.22125 9.54281 4.085 9.92923C3.75125 10.0217 3.3875 10.0661 3.01 10.0661C2.7475 10.0661 2.4825 10.0509 2.23375 9.99511C2.765 11.6409 4.2725 12.8509 6.065 12.8901C4.67 13.9962 2.89875 14.6626 0.98125 14.6626C0.645 14.6626 0.3225 14.6474 0 14.6056C1.81625 15.7928 3.96875 16.4706 6.29 16.4706C13.835 16.4706 17.96 10.1357 17.96 4.64471C17.96 4.461 17.9538 4.28362 17.945 4.10751C18.7588 3.52217 19.4425 2.79113 20 1.94986Z" fill="#1DA1F2"/>
</svg>
